/* XPM */
static char * about_disabled_xpm[] = {
"48 48 16 1",
" 	g None",
".	g #CDCDCD",
"+	g #CBCBCB",
"@	g #C9C9C9",
"#	g #C7C7C7",
"$	g #C5C5C5",
"%	g #C3C3C3",
"&	g #C1C1C1",
"*	g #C2C2C2",
"=	g #C8C8C8",
"-	g #C6C6C6",
";	g #C4C4C4",
">	g #CACACA",
",	g #CECECE",
"'	g #CCCCCC",
")	g #C0C0C0",
"                                                ",
"                                                ",
"                                                ",
"                                                ",
"                                                ",
"                  .+@#$$$$#@+.                  ",
"                +#%&&**%%**&&*#+                ",
"              +$**%$#=@@@@#-$%&&;+              ",
"             =%*;#@++++>>@@@@=-%&&-.            ",
"           .$&%#>++++++@@@@@@@@=-%&%+           ",
"          .;&$@++++++@#$$#@@@====#$&*+          ",
"         .;*$>++++++@#+..>-#===####$&*+         ",
"         $&$+++++++>#.,,,,+$==######$&%.        ",
"        =&$>+++++>>@@,,,,,,#######-##;&$        ",
"       +%%@+++++>>>=@,,,,,,######--$--*&@       ",
"       $*#+++++>>@@@#.,,,,'$####----$-$&%       ",
"      '*;>++++>>@@@@##'..+$####---$$$$-%&@      ",
"      #&#++++>>@@@@@@#-##$####----$$$$$$&;      ",
"      %%=>++>>@@@@@@@@=######---$$$$$$$$*)+     ",
"     +&$@=>>>@@@@@=###--$$$----$$$$$$;;$%)@     ",
"     @&-@$#>@@@@@##@@@>>+++----$$$$$;%%$;&-     ",
"     #*#=$;#>@@@@#=,,,,,,,,#$$$$$$$;%%%;;&;     ",
"     $%##$$;#@@@@=--@,.....#$$$$$$;%%%%;;&%     ",
"     $%##$;;;-=@===#$>,....#$$$$$;%%%%%;;&%     ",
"     $%##;;;;;$#==##$=,....#$$$$;%%%%%%;;&%     ",
"     $*##;;;;;;;$###$@,....#$$;%%%%%%%%;;&%     ",
"     #*##$;;;;;;%%;$;@,....#%%%%%%%%%%%;;&;     ",
"     @&$=$;;;;;;;%%%%@,...,#%%%%%%%%%%%;%)$     ",
"     +&$=-;;;;;;;%%%%@,...,#%%%%%%%%%%%;%)#     ",
"     .*%##;;;;;%%%%%%@,....#%%%%%%%%%%%;&)+     ",
"      #&$#$%%%%%%%%%%@,....#%%%%%%%%%%;%)%      ",
"      +&%#-;;;%%%%%%%@,....#%%%%%%%%%%;*)@      ",
"       ;&$#$%%%%%%%%%@,....#%%%%%%%%%;%&&.      ",
"       +&%##;%%%%%%%%@,....#%%%%%%%%%;&)#       ",
"        -&;#$;%%%%%%%@,...,#*%%%%%%%;%)%        ",
"        .%&$#$;%%%%$#.......=;%%%%%;%)&+        ",
"         +*&$-$;%%$.,,.....,,+%%%%;%&)@         ",
"          +*&;$$$%%##########-%%;;%))@          ",
"           +%&*$$$$%%%%%%%%%%%;;%&)&@           ",
"            .$&&%$$$$;;;;;;;;;%*&)%+            ",
"              @%)&*%;;;;;;;%%&))&#              ",
"                @;&))&&&&&&)))%@.               ",
"                  +@-;%%%%;$#+                  ",
"                                                ",
"                                                ",
"                                                ",
"                                                ",
"                                                "};
