/* XPM */
static char * about_xpm[] = {
"48 48 252 2",
"  	c None",
". 	c #EEF1F8",
"+ 	c #BDC6E3",
"@ 	c #92A6D2",
"# 	c #6883C0",
"$ 	c #486CB5",
"% 	c #3A5AAC",
"& 	c #4260AF",
"* 	c #627BBD",
"= 	c #8B9DCE",
"- 	c #B5BFDE",
"; 	c #E7EAF4",
"> 	c #CDD7EB",
", 	c #7892C8",
"' 	c #1E46A1",
") 	c #002793",
"! 	c #003399",
"~ 	c #09369F",
"{ 	c #00218D",
"] 	c #103096",
"^ 	c #4E71B8",
"/ 	c #073296",
"( 	c #0B3EA6",
"_ 	c #3366CC",
": 	c #4D85DD",
"< 	c #699BEF",
"[ 	c #72A7F8",
"} 	c #5C93EC",
"| 	c #457BDE",
"1 	c #2962C5",
"2 	c #103BA5",
"3 	c #002290",
"4 	c #3A52AD",
"5 	c #7F99CC",
"6 	c #103B9C",
"7 	c #2152B5",
"8 	c #538CDE",
"9 	c #81B4F8",
"0 	c #9CC5FF",
"a 	c #95BFFF",
"b 	c #8BB8FF",
"c 	c #86B5FF",
"d 	c #76AAF8",
"e 	c #6699FF",
"f 	c #1E4DB7",
"g 	c #6376BA",
"h 	c #0F43A9",
"i 	c #95C4FF",
"j 	c #ACCFFF",
"k 	c #A7CCFF",
"l 	c #91B9F7",
"m 	c #83AEF4",
"n 	c #7DAAF4",
"o 	c #6FA6FF",
"p 	c #00198A",
"q 	c #2A419F",
"r 	c #CED3E9",
"s 	c #E1E5F0",
"t 	c #2C55AA",
"u 	c #A4C9FF",
"v 	c #8CB5F6",
"w 	c #517ECE",
"x 	c #436EC1",
"y 	c #7AA5EE",
"z 	c #729FED",
"A 	c #518FF9",
"B 	c #265BC7",
"C 	c #162A92",
"D 	c #BBC2E0",
"E 	c #3B72D1",
"F 	c #5B84CD",
"G 	c #A7B8DB",
"H 	c #4A75C5",
"I 	c #6392E6",
"J 	c #6A98E8",
"K 	c #5091FF",
"L 	c #285DCC",
"M 	c #94BBF6",
"N 	c #FFFFFF",
"O 	c #BECDE7",
"P 	c #4173CB",
"Q 	c #6C9BE9",
"R 	c #5A8CE4",
"S 	c #5287E7",
"T 	c #4A8EFF",
"U 	c #24369A",
"V 	c #9BC1FB",
"W 	c #88A4D7",
"X 	c #6A8DD0",
"Y 	c #5184DF",
"Z 	c #4A7DDE",
"` 	c #4085FF",
" .	c #2051BE",
"..	c #000F84",
"+.	c #5966B2",
"@.	c #4273DE",
"#.	c #3A7EFD",
"$.	c #1032A4",
"%.	c #A6ADD5",
"&.	c #83ADF2",
"*.	c #D1DBED",
"=.	c #3F75D6",
"-.	c #3572E6",
";.	c #317BFF",
">.	c #2864DB",
",.	c #051A8D",
"'.	c #F8F7F5",
").	c #3B72D8",
"!.	c #376ED7",
"~.	c #316AD5",
"{.	c #2C70F2",
"].	c #2B77FE",
"^.	c #163EB0",
"/.	c #AEAED6",
"(.	c #7FAAF1",
"_.	c #4C7BCF",
":.	c #608BD6",
"<.	c #2E66D3",
"[.	c #2370FF",
"}.	c #1F5DDA",
"|.	c #020F8A",
"1.	c #434DA5",
"2.	c #1C44A1",
"3.	c #5BA0FF",
"4.	c #76A3EF",
"5.	c #2861D0",
"6.	c #2067F0",
"7.	c #296CDC",
"8.	c #000883",
"9.	c #65AAFF",
"0.	c #599CFA",
"a.	c #487DD7",
"b.	c #4177D5",
"c.	c #205ACE",
"d.	c #1847BA",
"e.	c #9999CC",
"f.	c #1C77F4",
"g.	c #428CF3",
"h.	c #9BC1F9",
"i.	c #8BAADD",
"j.	c #91AEDE",
"k.	c #A5BEE6",
"l.	c #B0C4E6",
"m.	c #B5CEE6",
"n.	c #1250C6",
"o.	c #084ABE",
"p.	c #2368D8",
"q.	c #2152C5",
"r.	c #020C88",
"s.	c #6B71B7",
"t.	c #4A8CEE",
"u.	c #0A6AF0",
"v.	c #005DEC",
"w.	c #5393F2",
"x.	c #7499D5",
"y.	c #FFFEF7",
"z.	c #0042B5",
"A.	c #4A50A6",
"B.	c #5797F5",
"C.	c #0365EC",
"D.	c #0261E7",
"E.	c #86A8DD",
"F.	c #F3F2F1",
"G.	c #5C89D6",
"H.	c #0046BB",
"I.	c #195ACE",
"J.	c #061A92",
"K.	c #353A9A",
"L.	c #4A93F8",
"M.	c #005CE4",
"N.	c #387EE8",
"O.	c #2C6ACF",
"P.	c #0F4BC5",
"Q.	c #1555C7",
"R.	c #2C3095",
"S.	c #1868E1",
"T.	c #759DDB",
"U.	c #EFEFEF",
"V.	c #5887D7",
"W.	c #2863D2",
"X.	c #2460D1",
"Y.	c #1754CB",
"Z.	c #003FAE",
"`.	c #0058D9",
" +	c #77A1DF",
".+	c #333399",
"++	c #4987E8",
"@+	c #0763E6",
"#+	c #005ADD",
"$+	c #0053D6",
"%+	c #0E5CD5",
"&+	c #4880D4",
"*+	c #4749A3",
"=+	c #3975DC",
"-+	c #004ECE",
";+	c #0043C5",
">+	c #003CB4",
",+	c #6668B2",
"'+	c #2D7AEA",
")+	c #0052CF",
"!+	c #003AA6",
"~+	c #0946B6",
"{+	c #0D3BB4",
"]+	c #00007B",
"^+	c #8B8BC4",
"/+	c #4186EF",
"(+	c #EBEAE9",
"_+	c #0D4BBF",
":+	c #1357CF",
"<+	c #06229D",
"[+	c #C5C6E2",
"}+	c #1467E0",
"|+	c #1153CC",
"1+	c #024FC7",
"2+	c #75A3E5",
"3+	c #0B47B8",
"4+	c #092DA7",
"5+	c #3750A6",
"6+	c #1D6ADE",
"7+	c #0641AE",
"8+	c #171788",
"9+	c #004AC5",
"0+	c #0043BD",
"a+	c #E6E6E6",
"b+	c #003AAB",
"c+	c #3175E0",
"d+	c #0856CF",
"e+	c #003ABE",
"f+	c #81ACE9",
"g+	c #5C91DD",
"h+	c #0031AE",
"i+	c #0A38B3",
"j+	c #3C3C9C",
"k+	c #0B57CE",
"l+	c #2165D5",
"m+	c #6394DE",
"n+	c #E6EFFA",
"o+	c #F0EEEA",
"p+	c #6D9CE2",
"q+	c #101084",
"r+	c #CFCFE7",
"s+	c #1862CF",
"t+	c #ECF6FF",
"u+	c #B4D2F8",
"v+	c #07077F",
"w+	c #064DC6",
"x+	c #578EDE",
"y+	c #27399B",
"z+	c #40409E",
"A+	c #1029A5",
"B+	c #21218C",
"C+	c #060F84",
"                                                                                                ",
"                                                                                                ",
"                                                                                                ",
"                                                                                                ",
"                                                                                                ",
"                                    . + @ # $ % % & * = - ;                                     ",
"                                > , ' ) ) ! ! ~ ~ ! ! ) { ] * +                                 ",
"                            > ^ / / ( _ : < [ [ [ [ } | 1 2 3 3 4 -                             ",
"                          5 6 ! 7 8 9 0 0 0 0 a a b c c d e | f ) { g ;                         ",
"                      ; $ ) h 8 i j k k 0 0 0 l l l m n d o o e | 2 p q r                       ",
"                    s t ) 1 9 j j u u u u v w x x w y y y z < e e A B p C D                     ",
"                  ; t ! E i j k k k 0 0 y F - ; s G H I z J J I } K K L 3 C r                   ",
"                  $ ) E 0 j k k k 0 0 M F s N N N N O P Q Q I R R S T T L p U s                 ",
"                5 ) 1 i j k k k 0 V V y W N N N N N N X R I I R Y Y Z ` `  ...+.                ",
"              > 6 h 9 j k k k 0 V V M z W N N N N N N X 8 R R Y Y Z Z @.#.#.$...%.              ",
"              $ ! 8 j k k k 0 V V l l &.F . N N N N *.P R R Y Y Z Z =.=.-.;.>.,.U               ",
"            *./ 7 i k k k 0 V V l v v m I w *.'.'.O P : R Y Y Z Z =.).!.~.{.].^.../.            ",
"            , ) Y j u u u V V l v v &.(.(.I _.:.F E Y R Y Y Z Z =.=.!.~.<.>.[.}.|.1.            ",
"            2.( 3.i k 0 V V l v v &.(.(.4.4.z I I I I S : Z Z =.).!.~.<.5.5.6.7.$.8.r           ",
"          + ) _ 9.0.V V V l v v &.(.Q R R : a.b.E E _ =.Z Z =.).!.~.<.5.5.c.c.7.d.8.e.          ",
"          @ ) | 9.f.g.h.l v v &.&.I w i.j.j.k.k.l.m.O _.=.=.=.!.~.<.5.5.c.n.o.p.q.r.s.          ",
"          # ! t.3.u.v.w.M v &.(.(.: x.N N N N y.y.y.y.:.!.).!.~.<.5.5.c.n.z.z.c.c.|.A.          ",
"          $ ~ B.B.C.C.D.t.v (.y y J a.a.E.N '.F.F.F.'.G.~.!.~.<.5.5.c.n.H.z.z.I.I.J.K.          ",
"          % ~ B.L.C.D.D.M.N.z y z Q Q I O.k.y.F.F.F.'.G.<.<.<.5.5.c.P.z.z.z.z.Q.c.J.R.          ",
"          % ~ B.L.D.M.M.M.M.S.S Q Q I I ).T.N F.U.U.'.V.W.<.<.X.Y.o.z.z.z.z.Z.Q.I.J.R.          ",
"          & / w.L.D.M.M.M.M.`.`.7.: R R ). +y.U.U.U.'.V.X.X.c.n.H.z.z.z.z.Z.Z.Q.I.J..+          ",
"          * / ++w.@+M.M.M.#+#+#+$+$+%+p.c. +y.U.U.U.'.&+P.o.H.H.z.z.z.z.Z.Z.Z.Q.Q.|.*+          ",
"          = ) =+0.S.#+#+#+`.`.`.`.$+$+-+;+ +y.U.U.U.y.&+>+H.H.H.z.z.z.z.Z.Z.Z.I.P.8.,+          ",
"          - { 1 0.'+#+#+`.`.`.`.`.)+)+)+;+ +y.U.U.U.y.&+>+H.H.z.z.z.z.Z.Z.!+~+I.{+]+^+          ",
"          ; ] 2 w./+#+`.`.`.`.$+$+)+)+)+;+ +y.(+(+(+'.&+>+z.z.z.z.Z.Z.Z.Z.!+_+:+<+]+[+          ",
"            * 3 =+w.}+$+$+$+$+$+)+)+)+)+;+ +y.(+(+(+'.&+>+z.z.z.Z.Z.Z.Z.!+!+|+_+8..+            ",
"            + { f w.N.`.`.`.)+)+)+)+)+1+;+2+y.(+(+(+'.&+>+>+>+Z.Z.Z.Z.!+!+3+:+4+]+e.            ",
"              5+) =+t.6+)+)+)+)+)+)+1+1+;+2+y.(+(+(+'.&+>+Z.Z.Z.Z.Z.Z.!+7+|+P.r.8+.             ",
"              D ,.2 /+/+%+-+-+-+-+-+9+9+0+2+y.a+a+a+'.&+b+Z.Z.Z.Z.!+!+!+P.|+<+]+^+              ",
"                g p q./+c+d+1+1+1+1+9+0+e+f+y.a+a+a+y.g+h+b+b+b+!+!+!+_+:+i+]+j+                ",
"                ; q p B /+c+k+9+9+9+1+l+m+n+o+a+a+a+o+s p+I.Z.!+!+!+_+|+{+8.q+r+                ",
"                  r C 3 B N.c+I.9+0+s+t+N N '.'.'.'.'.N N u+z.!+7+P.|+{+r.v+/.                  ",
"                    D C p  .c+c+l+w+w+8 x+x+x+x+x+x+x+x+x+b.z.3+|+|+i+8.v+e.                    ",
"                      r+y+..$.W.c+c+l+w+0+>+>+b+b+b+b+b+>+o.|+:+P.<+]+q+/.                      ",
"                        s +...,.^.L 7.7.p.c.c.Q.Q.Q.Q.Q.I.I._+4+r.]+z+r+                        ",
"                            %.y+8.|.A+d.q.c.c.c.c.c.Y.P.{+<+8.]+B+^+                            ",
"                                %.1.C+8.8.|.J.J.J.J.|.8.8.]+.+e.;                               ",
"                                    r+e.s.A.K.R.R..+*+,+^+[+                                    ",
"                                                                                                ",
"                                                                                                ",
"                                                                                                ",
"                                                                                                ",
"                                                                                                "};
