/* XPM */
static char * arrow_right_blue_disabled_xpm[] = {
"48 48 9 1",
" 	g None",
".	g #C9C9C9",
"+	g #C8C8C8",
"@	g #C5C5C5",
"#	g #C6C6C6",
"$	g #C2C2C2",
"%	g #C4C4C4",
"&	g #C7C7C7",
"*	g #C3C3C3",
"                                                ",
"                                                ",
"                       .+.                      ",
"                      .@@+                      ",
"                     .#$%&                      ",
"                    .#$$%&                      ",
"                   .#$*$%&                      ",
"                  .@$*@$%&                      ",
"                 .@**@%$%&                      ",
"                .@*%@@%$%&                      ",
"               .@$%@@@%$%&                      ",
"              .@*%@@@@*$%&                      ",
"             .@*%@@@@@*$*&+..................   ",
"            .@*@@@@@@@%$**%@@@@@@@@@@@@@@@@@#.  ",
"           .@*@@@@@@@@%$*****************$$*@.  ",
"          .@*@#@@@@@@%%*******************$*@.  ",
"         .@*@#@@@@@@@%%%******************$*@.  ",
"        .@*@###@@@@@@%%%%%****************$*@.  ",
"       .@*@&###@@@@@@@@@@@@@@@@%%%%%******$*@.  ",
"      .@*@&#####@@@@@@@@@@@@@@@%%%%%******$*@.  ",
"     .@*@&&&#####@@@@@@@@@@@@@@@%%%%******$*@.  ",
"    .@*@&&&&#####@@@@@@@@@@@@@@@%%%%%*****$*@.  ",
"   .@*@&&&&&&#####@@@@@@@@@@@@@@@%%%%*****$*@.  ",
"   #*#&&+&&&&&####@@@@@@@@@@@@@@@%%%%%****$*@.  ",
"  &*#&&++&&&&&#####@@@@@@@@@@@@@@@%%%%%*****@.  ",
"  &*@&+++&&&&&&#####@@@@@@@@@@@@@@%%%%%*****@.  ",
"   &*@&+++&&&&&#####@@@@@@@@@@@@@@@%%%%%****@.  ",
"    +*@&+++&&&&&#####@@@@@@@@@@@@@@@%%%%****@.  ",
"     &*@&+++&&&&&####@@@@@@@@@@@@@@@%%%%%***@.  ",
"      &*@&+++&&&&#####@@@@@@@@@@@@@@@%%%%%**@.  ",
"       +*@&+++&&&&####@@&#####@@@@@@@@@%%%**@.  ",
"        +*@&+++&&&#####&&&&&&&&&&&&&&##@%%**@.  ",
"         +*@&&++&&&####&&&&&&&&&&&&&####@%**@.  ",
"          +*@&&++&&#####@@@@@@@@@@@@@@@%%%**@.  ",
"           +*@&&++&&&##@@@@@@@@%%%%%********&   ",
"            +*@&&++&&##$*******************@    ",
"             +*@&&+&&##$%&                      ",
"              +*@&&+&##$%&                      ",
"               +*@&&+&#*%&                      ",
"                +*@&&&#$%&                      ",
"                 +*@&&&$%&                      ",
"                  +*@&&*%&                      ",
"                   +*@&*%&                      ",
"                    +*%*@&                      ",
"                     +**@+                      ",
"                      +*&.                      ",
"                       +.                       ",
"                                                "};
