/* XPM */
static char * arrow_left_blue_xpm[] = {
"48 48 748 2",
"  	c None",
". 	c #E4E4E4",
"+ 	c #CFCFCF",
"@ 	c #E8E8E8",
"# 	c #CECECE",
"$ 	c #8A909A",
"% 	c #8A9DB8",
"& 	c #C6C6C6",
"* 	c #707680",
"= 	c #074CAF",
"- 	c #8A9FBB",
"; 	c #6B717A",
"> 	c #0049AF",
", 	c #074DAF",
"' 	c #8A9FBC",
") 	c #C5C5C5",
"! 	c #0049B0",
"~ 	c #1A6BC8",
"{ 	c #074DB0",
"] 	c #E7E7E7",
"^ 	c #0047AF",
"/ 	c #3489DC",
"( 	c #1E6FCB",
"_ 	c #064DB2",
": 	c #889DBB",
"< 	c #E6E6E6",
"[ 	c #3182D1",
"} 	c #3B8FE0",
"| 	c #2273CD",
"1 	c #0750B2",
"2 	c #879DBA",
"3 	c #0049B1",
"4 	c #307DCB",
"5 	c #3A8DDF",
"6 	c #3F91E1",
"7 	c #2777CF",
"8 	c #0750B6",
"9 	c #839CBC",
"0 	c #E5E5E5",
"a 	c #3078C3",
"b 	c #3C8FE1",
"c 	c #4091E0",
"d 	c #4595E3",
"e 	c #2B7AD1",
"f 	c #0550B5",
"g 	c #004BB2",
"h 	c #3075BC",
"i 	c #3E8FDF",
"j 	c #4191E2",
"k 	c #4493E3",
"l 	c #4C9AE5",
"m 	c #2E7DD3",
"n 	c #0552B7",
"o 	c #829CBC",
"p 	c #DDDDDD",
"q 	c #DCDCDC",
"r 	c #DBDBDB",
"s 	c #D3D3D3",
"t 	c #ABABAB",
"u 	c #666C75",
"v 	c #004AB2",
"w 	c #3075B9",
"x 	c #3E8BDA",
"y 	c #4392E2",
"z 	c #4695E2",
"A 	c #4B97E5",
"B 	c #509CE7",
"C 	c #3180D5",
"D 	c #0553B8",
"E 	c #829DBE",
"F 	c #E9E9E9",
"G 	c #A7A7A7",
"H 	c #808080",
"I 	c #7B7B7B",
"J 	c #7C7C7C",
"K 	c #7D7D7D",
"L 	c #7F7F7F",
"M 	c #7E7E7E",
"N 	c #797979",
"O 	c #787878",
"P 	c #747474",
"Q 	c #676767",
"R 	c #595F68",
"S 	c #3375BB",
"T 	c #3C86D0",
"U 	c #4896E3",
"V 	c #4B98E4",
"W 	c #4E9AE5",
"X 	c #56A1E8",
"Y 	c #3483D6",
"Z 	c #0555BA",
"` 	c #E2E2E2",
" .	c #8A8A8A",
"..	c #3D5C95",
"+.	c #184899",
"@.	c #1B4AA2",
"#.	c #1F4DA5",
"$.	c #1F4EA4",
"%.	c #1F50A5",
"&.	c #2050A6",
"*.	c #2655A5",
"=.	c #2253A7",
"-.	c #1F53A9",
";.	c #1F52AA",
">.	c #1F53AB",
",.	c #1F54AC",
"'.	c #1B54AB",
").	c #1854A5",
"!.	c #1855A2",
"~.	c #1854A3",
"{.	c #1755A6",
"].	c #1051AB",
"^.	c #0D4FAE",
"/.	c #0049B2",
"(.	c #3376BB",
"_.	c #3C82C8",
":.	c #4896E5",
"<.	c #4A97E4",
"[.	c #4D99E5",
"}.	c #509CE6",
"|.	c #549EE7",
"1.	c #5BA4EA",
"2.	c #3886D8",
"3.	c #0555BB",
"4.	c #819CBD",
"5.	c #888888",
"6.	c #345797",
"7.	c #0047A9",
"8.	c #0053B1",
"9.	c #0253B0",
"0.	c #0454B1",
"a.	c #0657B3",
"b.	c #0856B1",
"c.	c #0A57B1",
"d.	c #0C59B3",
"e.	c #0E5DB5",
"f.	c #105EB7",
"g.	c #1461B6",
"h.	c #1661B7",
"i.	c #1865B9",
"j.	c #1B68BC",
"k.	c #1F69BB",
"l.	c #206BBC",
"m.	c #226CBD",
"n.	c #2771C0",
"o.	c #2972C0",
"p.	c #2C74C2",
"q.	c #3679B9",
"r.	c #3B7DBF",
"s.	c #4A97E5",
"t.	c #4C99E4",
"u.	c #4F9BE5",
"v.	c #529DE7",
"w.	c #569FE8",
"x.	c #59A3E9",
"y.	c #61A8EC",
"z.	c #3F8BDC",
"A.	c #0456BC",
"B.	c #809CBE",
"C.	c #E1E1E1",
"D.	c #878787",
"E.	c #345696",
"F.	c #004BAA",
"G.	c #0258AD",
"H.	c #0459AE",
"I.	c #075BAE",
"J.	c #0A5EAF",
"K.	c #0D5EAF",
"L.	c #1061B0",
"M.	c #1363B0",
"N.	c #1663B1",
"O.	c #1A65B1",
"P.	c #1B68B2",
"Q.	c #1F68B3",
"R.	c #226AB3",
"S.	c #256CB4",
"T.	c #286FB4",
"U.	c #2A6FB4",
"V.	c #2D71B5",
"W.	c #2E72B5",
"X.	c #3374B6",
"Y.	c #3476B7",
"Z.	c #3777B7",
"`.	c #3A79B7",
" +	c #4B99E6",
".+	c #4D9AE5",
"++	c #519CE6",
"@+	c #58A1E8",
"#+	c #5BA3EA",
"$+	c #5FA5EC",
"%+	c #66ABEE",
"&+	c #438EDE",
"*+	c #0559BE",
"=+	c #809DBE",
"-+	c #345697",
";+	c #004AA8",
">+	c #0359AE",
",+	c #065BAF",
"'+	c #095DAF",
")+	c #0C5FB0",
"!+	c #0F61B0",
"~+	c #1261B1",
"{+	c #1563B3",
"]+	c #1865B3",
"^+	c #1B68B4",
"/+	c #1E68B3",
"(+	c #206AB5",
"_+	c #236CB6",
":+	c #266EB6",
"<+	c #2971B5",
"[+	c #2C71B6",
"}+	c #2E73B7",
"|+	c #3277BA",
"1+	c #3477B9",
"2+	c #377ABB",
"3+	c #3A7ABA",
"4+	c #3C7BBA",
"5+	c #4A96DF",
"6+	c #4F9BE7",
"7+	c #539DE7",
"8+	c #56A0E8",
"9+	c #5AA2E9",
"0+	c #5DA4EA",
"a+	c #61A7EB",
"b+	c #64AAEE",
"c+	c #6DAFF0",
"d+	c #4791E0",
"e+	c #0459C0",
"f+	c #809DBF",
"g+	c #E0E0E0",
"h+	c #858585",
"i+	c #014AA9",
"j+	c #055FB7",
"k+	c #096ED1",
"l+	c #0E6FD1",
"m+	c #1071D2",
"n+	c #1574D4",
"o+	c #1776D5",
"p+	c #1C7AD6",
"q+	c #1E7BD7",
"r+	c #237DD8",
"s+	c #2581DB",
"t+	c #2882DB",
"u+	c #2D84DC",
"v+	c #2F88DD",
"w+	c #3489DE",
"x+	c #378BDF",
"y+	c #3B8DE0",
"z+	c #3E91E1",
"A+	c #4293E4",
"B+	c #4595E4",
"C+	c #4998E5",
"D+	c #4C9AE6",
"E+	c #4E9BE6",
"F+	c #559FE7",
"G+	c #58A1E9",
"H+	c #5CA3EA",
"I+	c #5FA5EB",
"J+	c #63A8EC",
"K+	c #66AAED",
"L+	c #6AACEE",
"M+	c #72B3F2",
"N+	c #4B94E2",
"O+	c #045BC0",
"P+	c #838383",
"Q+	c #2E5298",
"R+	c #024DAA",
"S+	c #0762BB",
"T+	c #0B6ED0",
"U+	c #0F70D0",
"V+	c #1272D1",
"W+	c #1674D2",
"X+	c #1977D4",
"Y+	c #1D79D5",
"Z+	c #207BD6",
"`+	c #247ED7",
" @	c #2780D8",
".@	c #2A82D9",
"+@	c #2E85DA",
"@@	c #3187DC",
"#@	c #3589DD",
"$@	c #388BDE",
"%@	c #3C8EDF",
"&@	c #3F90E0",
"*@	c #4392E1",
"=@	c #509BE6",
"-@	c #539EE7",
";@	c #57A0E8",
">@	c #5EA5EA",
",@	c #61A7EC",
"'@	c #65A9ED",
")@	c #68ABEE",
"!@	c #6CAEEF",
"~@	c #6FB0F0",
"{@	c #79B6F3",
"]@	c #4E98E3",
"^@	c #045CC2",
"/@	c #7B9CC0",
"(@	c #E3E3E3",
"_@	c #2D5298",
":@	c #034EAB",
"<@	c #0965BF",
"[@	c #0D70D1",
"}@	c #1171D1",
"|@	c #1473D2",
"1@	c #1876D3",
"2@	c #1B78D4",
"3@	c #1F7AD5",
"4@	c #227DD7",
"5@	c #267FD8",
"6@	c #2981D9",
"7@	c #2C84DA",
"8@	c #3086DB",
"9@	c #3388DC",
"0@	c #378ADD",
"a@	c #3E8FE0",
"b@	c #4191E1",
"c@	c #4594E2",
"d@	c #529DE6",
"e@	c #559FE8",
"f@	c #59A1E9",
"g@	c #5CA4EA",
"h@	c #60A6EB",
"i@	c #67AAED",
"j@	c #6AADEF",
"k@	c #6EAFF0",
"l@	c #71B1F1",
"m@	c #75B5F2",
"n@	c #7EBAF5",
"o@	c #539BE5",
"p@	c #025CC3",
"q@	c #799BC1",
"r@	c #044EAB",
"s@	c #0B68C4",
"t@	c #0F70D1",
"u@	c #1372D2",
"v@	c #1675D3",
"w@	c #1A77D4",
"x@	c #217CD6",
"y@	c #2B83D9",
"z@	c #2E85DB",
"A@	c #3287DC",
"B@	c #398CDE",
"C@	c #4090E0",
"D@	c #4393E1",
"E@	c #4795E3",
"F@	c #58A0E8",
"G@	c #5BA3E9",
"H@	c #5EA5EB",
"I@	c #62A7EC",
"J@	c #69ACEE",
"K@	c #70B0F0",
"L@	c #73B3F2",
"M@	c #77B5F3",
"N@	c #7AB7F4",
"O@	c #84BEF7",
"P@	c #559EE7",
"Q@	c #025EC5",
"R@	c #799CC1",
"S@	c #2D5499",
"T@	c #054FAA",
"U@	c #0D6DCA",
"V@	c #1171D2",
"W@	c #1574D2",
"X@	c #1C78D4",
"Y@	c #1F7BD6",
"Z@	c #237DD7",
"`@	c #2982D9",
" #	c #2D84DA",
".#	c #3186DB",
"+#	c #378BDE",
"@#	c #3B8DDF",
"##	c #3E90E0",
"$#	c #4292E1",
"%#	c #4997E3",
"&#	c #61A6EB",
"*#	c #64A9EC",
"=#	c #6BADEF",
"-#	c #6FAFF0",
";#	c #72B2F1",
">#	c #75B4F2",
",#	c #84BCF5",
"'#	c #8EC3F7",
")#	c #87C0F9",
"!#	c #5FA4EA",
"~#	c #0260C7",
"{#	c #799CC2",
"]#	c #DFDFDF",
"^#	c #818181",
"/#	c #2D5399",
"(#	c #0650AB",
"_#	c #1170CE",
":#	c #1374D3",
"<#	c #1775D3",
"[#	c #1E7AD5",
"}#	c #257ED7",
"|#	c #2881D9",
"1#	c #2C83DA",
"2#	c #2F85DB",
"3#	c #368ADD",
"4#	c #3D8FDF",
"5#	c #4091E1",
"6#	c #4493E2",
"7#	c #4796E3",
"8#	c #6DAFEF",
"9#	c #74B3F2",
"0#	c #7BB8F4",
"a#	c #7FBAF5",
"b#	c #B1D5FA",
"c#	c #92C5F8",
"d#	c #8DC4FB",
"e#	c #63A7EC",
"f#	c #0262C9",
"g#	c #7FA6CE",
"h#	c #28519B",
"i#	c #0852AD",
"j#	c #1373D2",
"k#	c #1976D3",
"l#	c #1C79D5",
"m#	c #2E84DA",
"n#	c #3187DB",
"o#	c #3B8EDF",
"p#	c #4C99E5",
"q#	c #5EA4EA",
"r#	c #76B4F2",
"s#	c #79B7F4",
"t#	c #7DB9F5",
"u#	c #7DBAF6",
"v#	c #ADD4F9",
"w#	c #B3D7FA",
"x#	c #97C9FA",
"y#	c #94C9FD",
"z#	c #6BAEEF",
"A#	c #0266CB",
"B#	c #93BCE8",
"C#	c #DEDEDE",
"D#	c #264F99",
"E#	c #0955B1",
"F#	c #1575D4",
"G#	c #227CD6",
"H#	c #257FD8",
"I#	c #3A8DDE",
"J#	c #3D8FE0",
"K#	c #4494E2",
"L#	c #529CE6",
"M#	c #78B6F3",
"N#	c #7DB9F6",
"O#	c #97C7F8",
"P#	c #B6D8FB",
"Q#	c #AED5FC",
"R#	c #97CBFE",
"S#	c #5BA2EA",
"T#	c #0769CC",
"U#	c #ABCDEF",
"V#	c #264F9C",
"W#	c #0B58B6",
"X#	c #2B82D9",
"Y#	c #5BA2E9",
"Z#	c #73B2F1",
"`#	c #76B5F3",
" $	c #7BB8F5",
".$	c #95C7F7",
"+$	c #B3D7FB",
"@$	c #B5D8FC",
"#$	c #96CAFE",
"$$	c #0764CA",
"%$	c #ADCFF4",
"&$	c #264E9B",
"*$	c #0C5BBA",
"=$	c #1978D5",
"-$	c #3488DC",
";$	c #378BDD",
">$	c #4192E1",
",$	c #4C98E4",
"'$	c #4F9AE5",
")$	c #64A8EC",
"!$	c #67ABEE",
"~$	c #7AB8F5",
"{$	c #94C6F7",
"]$	c #B2D7FB",
"^$	c #B4D7FC",
"/$	c #ACD4FC",
"($	c #93C9FC",
"_$	c #0763C9",
":$	c #AED1F4",
"<$	c #0E60C0",
"[$	c #1B78D5",
"}$	c #2880D8",
"|$	c #2B83DA",
"1$	c #4393E2",
"2$	c #4A98E4",
"3$	c #6DAEEF",
"4$	c #70B1F1",
"5$	c #79B6F4",
"6$	c #93C5F6",
"7$	c #B1D6F9",
"8$	c #B4D7FA",
"9$	c #ABD3FA",
"0$	c #92C8FD",
"a$	c #4E99E5",
"b$	c #0764C9",
"c$	c #AECFF4",
"d$	c #26519C",
"e$	c #0F61C1",
"f$	c #1D79D7",
"g$	c #3085DB",
"h$	c #3389DC",
"i$	c #378ADE",
"j$	c #3A8CDF",
"k$	c #3D90E0",
"l$	c #4897E3",
"m$	c #529CE7",
"n$	c #77B6F4",
"o$	c #92C4F6",
"p$	c #B3D6FB",
"q$	c #ACD3FB",
"r$	c #90C7FC",
"s$	c #4D98E4",
"t$	c #0864C9",
"u$	c #26509C",
"v$	c #1062C2",
"w$	c #1F7CD6",
"x$	c #4592DE",
"y$	c #4793DE",
"z$	c #4B96E0",
"A$	c #4F98E1",
"B$	c #539BE2",
"C$	c #569DE3",
"D$	c #5AA0E4",
"E$	c #5EA2E5",
"F$	c #62A4E6",
"G$	c #65A7E7",
"H$	c #69A9E8",
"I$	c #6CABE9",
"J$	c #6FADEA",
"K$	c #73B0EB",
"L$	c #78B3EC",
"M$	c #93C4F6",
"N$	c #B0D5FA",
"O$	c #B2D6FB",
"P$	c #AAD3FB",
"Q$	c #8FC6FC",
"R$	c #4C97E4",
"S$	c #0964C8",
"T$	c #B1D1F3",
"U$	c #1363C2",
"V$	c #207CD7",
"W$	c #62A2E3",
"X$	c #70ACE6",
"Y$	c #73ADE5",
"Z$	c #77B0E8",
"`$	c #7BB2E8",
" %	c #7FB5E9",
".%	c #84B8EA",
"+%	c #88BAEB",
"@%	c #8CBDEC",
"#%	c #90BFED",
"$%	c #93C1EE",
"%%	c #97C4F0",
"&%	c #9AC6F1",
"*%	c #9EC8F2",
"=%	c #A2CBF3",
"-%	c #A8CEF3",
";%	c #78B3EE",
">%	c #60A7EB",
",%	c #74B4F3",
"'%	c #AFD4F8",
")%	c #B1D5F9",
"!%	c #A9D2F9",
"~%	c #8EC5FC",
"{%	c #4B96E3",
"]%	c #0963C7",
"^%	c #B7D4F4",
"/%	c #2D569B",
"(%	c #1262C0",
"_%	c #2680D8",
":%	c #5EA0E2",
"<%	c #6BA7E5",
"[%	c #6CAAE5",
"}%	c #71ABE7",
"|%	c #75AEE8",
"1%	c #79B2E9",
"2%	c #7DB3EA",
"3%	c #81B7EB",
"4%	c #85B8EC",
"5%	c #89BCED",
"6%	c #8DBDEE",
"7%	c #90BFEF",
"8%	c #94C3F0",
"9%	c #98C4EF",
"0%	c #9BC6F2",
"a%	c #9FC8F3",
"b%	c #A4CBF3",
"c%	c #94C3F2",
"d%	c #91C3F5",
"e%	c #AED4F9",
"f%	c #A9D1FA",
"g%	c #8CC4FB",
"h%	c #4A95E2",
"i%	c #0963C6",
"j%	c #8B8B8B",
"k%	c #2E569D",
"l%	c #1462C2",
"m%	c #2581DA",
"n%	c #2780D9",
"o%	c #2983DA",
"p%	c #2D85DC",
"q%	c #3087DD",
"r%	c #3489DD",
"s%	c #378CDE",
"t%	c #3A8EDF",
"u%	c #3E91E0",
"v%	c #4193E1",
"w%	c #4897E4",
"x%	c #4B99E5",
"y%	c #4F9CE6",
"z%	c #529EE7",
"A%	c #5EA5EC",
"B%	c #62A7ED",
"C%	c #71B2F2",
"D%	c #8FC2F5",
"E%	c #AED3F9",
"F%	c #B0D4FA",
"G%	c #A7D1FA",
"H%	c #8BC2FB",
"I%	c #4994E2",
"J%	c #0962C5",
"K%	c #B6D3F3",
"L%	c #ACACAC",
"M%	c #325CA3",
"N%	c #0C56B8",
"O%	c #1A6CC8",
"P%	c #1B6BC8",
"Q%	c #1E6DC9",
"R%	c #206FCA",
"S%	c #2271CC",
"T%	c #2473CD",
"U%	c #2876CE",
"V%	c #2978CF",
"W%	c #2E7CD3",
"X%	c #317ED3",
"Y%	c #3380D4",
"Z%	c #3582D5",
"`%	c #3884D6",
" &	c #3A86D7",
".&	c #3C88DA",
"+&	c #408ADA",
"@&	c #418BDB",
"#&	c #458DDC",
"$&	c #448FDC",
"%&	c #67ABED",
"&&	c #7FB8F1",
"*&	c #74B3F1",
"=&	c #8EC2F4",
"-&	c #ADD3F7",
";&	c #A6D0F9",
">&	c #89C2FA",
",&	c #4792E0",
"'&	c #0961C5",
")&	c #B7D4F3",
"!&	c #5981C2",
"~&	c #295EB7",
"{&	c #295EB8",
"]&	c #2961B9",
"^&	c #2961BA",
"/&	c #2962BB",
"(&	c #2963BD",
"_&	c #2964BD",
":&	c #2161BE",
"<&	c #205FBD",
"[&	c #2062BF",
"}&	c #2063C0",
"|&	c #2064C1",
"1&	c #2063C3",
"2&	c #2064C3",
"3&	c #2064C4",
"4&	c #2064BF",
"5&	c #195CB2",
"6&	c #004DB6",
"7&	c #67AAEE",
"8&	c #6BAFEF",
"9&	c #A8CFF6",
"0&	c #A9D0F6",
"a&	c #ABD1F7",
"b&	c #A5CFF9",
"c&	c #87C1F9",
"d&	c #418DDD",
"e&	c #0960C4",
"f&	c #B8D4F3",
"g&	c #6B727B",
"h&	c #0050B8",
"i&	c #A7CFF7",
"j&	c #A8D0F7",
"k&	c #ADD3F9",
"l&	c #86C0F9",
"m&	c #408CDC",
"n&	c #0B61C4",
"o&	c #0050B9",
"p&	c #6CAFEF",
"q&	c #6FB0F1",
"r&	c #A9D1F6",
"s&	c #ADD2F7",
"t&	c #A5CFF8",
"u&	c #85C0F9",
"v&	c #0B60C4",
"w&	c #0052B9",
"x&	c #ADD3F8",
"y&	c #A5CEF8",
"z&	c #84BFF8",
"A&	c #3F8BDB",
"B&	c #095EC2",
"C&	c #B8D3F2",
"D&	c #0051BA",
"E&	c #71B0F0",
"F&	c #74B4F2",
"G&	c #A5CEF7",
"H&	c #82BDF7",
"I&	c #3E89DA",
"J&	c #0B5EC3",
"K&	c #BAD5F3",
"L&	c #72B1F1",
"M&	c #78B6F4",
"N&	c #83BEF7",
"O&	c #3D88DA",
"P&	c #0E60C2",
"Q&	c #B9D2F2",
"R&	c #0053BA",
"S&	c #80BDF7",
"T&	c #3A86D8",
"U&	c #0E5EC1",
"V&	c #BFD7F3",
"W&	c #0053BB",
"X&	c #7EBAF6",
"Y&	c #3783D7",
"Z&	c #0E5FC0",
"`&	c #C7C7C7",
" *	c #717A83",
".*	c #0055BC",
"+*	c #0E5EC0",
"@*	c #C1D8F3",
"#*	c #D0D0D0",
"$*	c #8C95A2",
"%*	c #0057BD",
"&*	c #C0D6F3",
"**	c #B7C3D4",
"=*	c #C0D6F1",
"-*	c #DAE5F2",
";*	c #C1D6F0",
"                                                                                                ",
"                                                                                                ",
"                                            . + @                                               ",
"                                            # $ % @                                             ",
"                                            & * = - @                                           ",
"                                            & ; > , ' @                                         ",
"                                            ) ; ! ~ { ' ]                                       ",
"                                            ) ; ^ / ( _ : <                                     ",
"                                            ) ; > [ } | 1 2 <                                   ",
"                                            ) ; 3 4 5 6 7 8 9 0                                 ",
"                                            ) ; 3 a b c d e f 9 0                               ",
"                                            ) ; g h i j k l m n o 0                             ",
"      ] p q p p p p p p p p p p q r r r r s t u v w x y z A B C D E 0                           ",
"    F G H I J J J K L M J J J I N N N N O P Q R v S T d U V W X Y Z E 0                         ",
"    `  ...+.@.#.$.%.&.*.=.-.;.>.,.'.).!.~.{.].^./.(._.:.<.[.}.|.1.2.3.4.0                       ",
"    ` 5.6.7.8.9.0.a.b.c.d.e.f.g.h.i.j.k.l.m.n.o.p.q.r.s.t.u.v.w.x.y.z.A.B.0                     ",
"    C.D.E.F.G.H.I.J.K.L.M.N.O.P.Q.R.S.T.U.V.W.X.Y.Z.`. +.+++|.@+#+$+%+&+*+=+0                   ",
"    C.D.-+;+>+,+'+)+!+~+{+]+^+/+(+_+:+<+[+}+|+1+2+3+4+5+6+7+8+9+0+a+b+c+d+e+f+0                 ",
"    g+h+-+i+j+k+l+m+n+o+p+q+r+s+t+u+v+w+x+y+z+A+B+C+D+E+++F+G+H+I+J+K+L+M+N+O+=+.               ",
"    g+P+Q+R+S+T+U+V+W+X+Y+Z+`+ @.@+@@@#@$@%@&@*@z <.[.=@-@;@9+>@,@'@)@!@~@{@]@^@/@(@            ",
"    g+P+_@:@<@[@}@|@1@2@3@4@5@6@7@8@9@0@5 a@b@c@U V W d@e@f@g@h@J+i@j@k@l@m@n@o@p@q@(@          ",
"    g+P+_@r@s@t@u@v@w@Y+x@`+ @y@z@A@#@B@%@C@D@E@<.[.}.|.F@G@H@I@K+J@!@K@L@M@N@O@P@Q@R@(@        ",
"    g+P+S@T@U@V@W@1@X@Y@Z@5@`@ #.#/ +#@###$#c@%#t.u.v.w.9+0+&#*#)@=#-#;#>#{@,#'#)#!#~#{#.       ",
"    ]#^#/#(#_#:#<#w@[#x@}#|#1#2#9@3#B@4#5#6#7#V W ++P@@+H+I+J+K+L+8#l@9#M@0#a#b#c#d#e#f#g#      ",
"    ]#H h#i#j#W@k#l#Z+Z@ @.@m#n##@$@o#&@$#z %#p#=@7+;@9+q#a+'@)@!@~@;#r#s#t#u#v#w#x#y#z#A#B#    ",
"    C#H D#E#F#<#2@[#G#H#6@1#8@9@0@I#J#b@K#U V W L#F+f@H+h@J+i@j@k@l@9#M#0#N#O#w#P#Q#R#S#T#U#    ",
"    C#L V#W#o+X+Y+Z+`+ @X#z@A@#@B@%@&@D@z <.[.=@|.;@Y#>@I@'@J@!@K@Z#`#N@ $.$+$@$Q##$;@$$%$      ",
"    C#L &$*$=$2@3@4@5@6@ #8@-$;$5 a@>$c@U ,$'$d@w.f@0+h@)$!$=#k@;#>#M#~${$]$^$/$($P@_$:$        ",
"    C#L &$<$[$Y+x@`+}$|$2#A@3#B@%@c 1$E@2$.+++|.F@G@I+I@K+J@3$4$L@M@5$6$7$8$9$0$a$b$c$          ",
"    ]#H d$e$f$Y@Z@H#`@7@g$h$i$j$k$b@6#l$V W m$e@9+0+&#*#)@=#~@;#r#n$o$b#p$q$r$s$t$c$            ",
"    ]#^#u$v$w$x@ @x$y$z$A$B$C$D$E$F$G$H$I$J$K$L$0+I+J+K+L+c+l@9#`#M$N$O$P$Q$R$S$T$              ",
"    g+P+u$U$V$5@W$X$Y$Z$`$ %.%+%@%#%$%%%&%*%=%-%;%>%'@)@!@~@Z#,%o$'%)%!%~%{%]%^%                ",
"    g+P+/%(%_%:%<%[%}%|%1%2%3%4%5%6%7%8%9%0%a%b%c%,@i@j@k@l@L@d%e%N$f%g%h%i%^%                  ",
"    ` j%k%l%m%n%o%p%q%r%s%t%u%v%B+w%x%y%z%;@x.A%B%'@J@!@K@C%D%E%F%G%H%I%J%K%                    ",
"      L%M%N%O%P%Q%R%S%T%U%V%W%X%Y%Z%`% &.&+&@&#&$&%&=#&&*&=&-&'%;&>&,&'&)&                      ",
"        !&~&~&{&]&^&/&(&_&(&:&<&[&}&|&1&2&3&4&5&6&7&8&9&0&a&E%b&c&d&e&f&                        ",
"                                            ) g&h&L+c+i&j&k&b&l&m&n&f&                          ",
"                                            ) g&o&p&q&r&s&t&u&z.v&f&                            ",
"                                            ) g&w&k@l@x&y&z&A&B&C&                              ",
"                                            ) g&D&E&F&G&H&I&J&K&                                ",
"                                            ) g&D&L&M&N&O&P&Q&                                  ",
"                                            ) g&R&,%S&T&U&V&                                    ",
"                                            & g&W&X&Y&Z&V&                                      ",
"                                            `& *.*Y%+*@*                                        ",
"                                            #*$*%*e$&*                                          ",
"                                            ] **e$=*                                            ",
"                                              -*;*                                              ",
"                                                                                                "};
