/* XPM */
static char * arrow_right_blue_xpm[] = {
"48 48 748 2",
"  	c None",
". 	c #E8E8E8",
"+ 	c #CFCFCF",
"@ 	c #E4E4E4",
"# 	c #8A9DB8",
"$ 	c #8A909A",
"% 	c #CECECE",
"& 	c #8A9FBB",
"* 	c #074CAF",
"= 	c #707680",
"- 	c #C6C6C6",
"; 	c #8A9FBC",
"> 	c #074DAF",
", 	c #0049AF",
"' 	c #6B717A",
") 	c #E7E7E7",
"! 	c #074DB0",
"~ 	c #1A6BC8",
"{ 	c #0049B0",
"] 	c #C5C5C5",
"^ 	c #E6E6E6",
"/ 	c #889DBB",
"( 	c #064DB2",
"_ 	c #1E6FCB",
": 	c #3489DC",
"< 	c #0047AF",
"[ 	c #879DBA",
"} 	c #0750B2",
"| 	c #2273CD",
"1 	c #3B8FE0",
"2 	c #3182D1",
"3 	c #E5E5E5",
"4 	c #839CBC",
"5 	c #0750B6",
"6 	c #2777CF",
"7 	c #3F91E1",
"8 	c #3A8DDF",
"9 	c #307DCB",
"0 	c #0049B1",
"a 	c #0550B5",
"b 	c #2B7AD1",
"c 	c #4595E3",
"d 	c #4091E0",
"e 	c #3C8FE1",
"f 	c #3078C3",
"g 	c #829CBC",
"h 	c #0552B7",
"i 	c #2E7DD3",
"j 	c #4C9AE5",
"k 	c #4493E3",
"l 	c #4191E2",
"m 	c #3E8FDF",
"n 	c #3075BC",
"o 	c #004BB2",
"p 	c #829DBE",
"q 	c #0553B8",
"r 	c #3180D5",
"s 	c #509CE7",
"t 	c #4B97E5",
"u 	c #4695E2",
"v 	c #4392E2",
"w 	c #3E8BDA",
"x 	c #3075B9",
"y 	c #004AB2",
"z 	c #666C75",
"A 	c #ABABAB",
"B 	c #D3D3D3",
"C 	c #DBDBDB",
"D 	c #DCDCDC",
"E 	c #DDDDDD",
"F 	c #0555BA",
"G 	c #3483D6",
"H 	c #56A1E8",
"I 	c #4E9AE5",
"J 	c #4B98E4",
"K 	c #4896E3",
"L 	c #3C86D0",
"M 	c #3375BB",
"N 	c #595F68",
"O 	c #676767",
"P 	c #747474",
"Q 	c #787878",
"R 	c #797979",
"S 	c #7B7B7B",
"T 	c #7C7C7C",
"U 	c #7E7E7E",
"V 	c #7F7F7F",
"W 	c #7D7D7D",
"X 	c #808080",
"Y 	c #A7A7A7",
"Z 	c #E9E9E9",
"` 	c #819CBD",
" .	c #0555BB",
"..	c #3886D8",
"+.	c #5BA4EA",
"@.	c #549EE7",
"#.	c #509CE6",
"$.	c #4D99E5",
"%.	c #4A97E4",
"&.	c #4896E5",
"*.	c #3C82C8",
"=.	c #3376BB",
"-.	c #0049B2",
";.	c #0D4FAE",
">.	c #1051AB",
",.	c #1755A6",
"'.	c #1854A3",
").	c #1855A2",
"!.	c #1854A5",
"~.	c #1B54AB",
"{.	c #1F54AC",
"].	c #1F53AB",
"^.	c #1F52AA",
"/.	c #1F53A9",
"(.	c #2253A7",
"_.	c #2655A5",
":.	c #2050A6",
"<.	c #1F50A5",
"[.	c #1F4EA4",
"}.	c #1F4DA5",
"|.	c #1B4AA2",
"1.	c #184899",
"2.	c #3D5C95",
"3.	c #8A8A8A",
"4.	c #E2E2E2",
"5.	c #809CBE",
"6.	c #0456BC",
"7.	c #3F8BDC",
"8.	c #61A8EC",
"9.	c #59A3E9",
"0.	c #569FE8",
"a.	c #529DE7",
"b.	c #4F9BE5",
"c.	c #4C99E4",
"d.	c #4A97E5",
"e.	c #3B7DBF",
"f.	c #3679B9",
"g.	c #2C74C2",
"h.	c #2972C0",
"i.	c #2771C0",
"j.	c #226CBD",
"k.	c #206BBC",
"l.	c #1F69BB",
"m.	c #1B68BC",
"n.	c #1865B9",
"o.	c #1661B7",
"p.	c #1461B6",
"q.	c #105EB7",
"r.	c #0E5DB5",
"s.	c #0C59B3",
"t.	c #0A57B1",
"u.	c #0856B1",
"v.	c #0657B3",
"w.	c #0454B1",
"x.	c #0253B0",
"y.	c #0053B1",
"z.	c #0047A9",
"A.	c #345797",
"B.	c #888888",
"C.	c #809DBE",
"D.	c #0559BE",
"E.	c #438EDE",
"F.	c #66ABEE",
"G.	c #5FA5EC",
"H.	c #5BA3EA",
"I.	c #58A1E8",
"J.	c #519CE6",
"K.	c #4D9AE5",
"L.	c #4B99E6",
"M.	c #3A79B7",
"N.	c #3777B7",
"O.	c #3476B7",
"P.	c #3374B6",
"Q.	c #2E72B5",
"R.	c #2D71B5",
"S.	c #2A6FB4",
"T.	c #286FB4",
"U.	c #256CB4",
"V.	c #226AB3",
"W.	c #1F68B3",
"X.	c #1B68B2",
"Y.	c #1A65B1",
"Z.	c #1663B1",
"`.	c #1363B0",
" +	c #1061B0",
".+	c #0D5EAF",
"++	c #0A5EAF",
"@+	c #075BAE",
"#+	c #0459AE",
"$+	c #0258AD",
"%+	c #004BAA",
"&+	c #345696",
"*+	c #878787",
"=+	c #E1E1E1",
"-+	c #809DBF",
";+	c #0459C0",
">+	c #4791E0",
",+	c #6DAFF0",
"'+	c #64AAEE",
")+	c #61A7EB",
"!+	c #5DA4EA",
"~+	c #5AA2E9",
"{+	c #56A0E8",
"]+	c #539DE7",
"^+	c #4F9BE7",
"/+	c #4A96DF",
"(+	c #3C7BBA",
"_+	c #3A7ABA",
":+	c #377ABB",
"<+	c #3477B9",
"[+	c #3277BA",
"}+	c #2E73B7",
"|+	c #2C71B6",
"1+	c #2971B5",
"2+	c #266EB6",
"3+	c #236CB6",
"4+	c #206AB5",
"5+	c #1E68B3",
"6+	c #1B68B4",
"7+	c #1865B3",
"8+	c #1563B3",
"9+	c #1261B1",
"0+	c #0F61B0",
"a+	c #0C5FB0",
"b+	c #095DAF",
"c+	c #065BAF",
"d+	c #0359AE",
"e+	c #004AA8",
"f+	c #345697",
"g+	c #045BC0",
"h+	c #4B94E2",
"i+	c #72B3F2",
"j+	c #6AACEE",
"k+	c #66AAED",
"l+	c #63A8EC",
"m+	c #5FA5EB",
"n+	c #5CA3EA",
"o+	c #58A1E9",
"p+	c #559FE7",
"q+	c #4E9BE6",
"r+	c #4C9AE6",
"s+	c #4998E5",
"t+	c #4595E4",
"u+	c #4293E4",
"v+	c #3E91E1",
"w+	c #3B8DE0",
"x+	c #378BDF",
"y+	c #3489DE",
"z+	c #2F88DD",
"A+	c #2D84DC",
"B+	c #2882DB",
"C+	c #2581DB",
"D+	c #237DD8",
"E+	c #1E7BD7",
"F+	c #1C7AD6",
"G+	c #1776D5",
"H+	c #1574D4",
"I+	c #1071D2",
"J+	c #0E6FD1",
"K+	c #096ED1",
"L+	c #055FB7",
"M+	c #014AA9",
"N+	c #858585",
"O+	c #E0E0E0",
"P+	c #E3E3E3",
"Q+	c #7B9CC0",
"R+	c #045CC2",
"S+	c #4E98E3",
"T+	c #79B6F3",
"U+	c #6FB0F0",
"V+	c #6CAEEF",
"W+	c #68ABEE",
"X+	c #65A9ED",
"Y+	c #61A7EC",
"Z+	c #5EA5EA",
"`+	c #57A0E8",
" @	c #539EE7",
".@	c #509BE6",
"+@	c #4392E1",
"@@	c #3F90E0",
"#@	c #3C8EDF",
"$@	c #388BDE",
"%@	c #3589DD",
"&@	c #3187DC",
"*@	c #2E85DA",
"=@	c #2A82D9",
"-@	c #2780D8",
";@	c #247ED7",
">@	c #207BD6",
",@	c #1D79D5",
"'@	c #1977D4",
")@	c #1674D2",
"!@	c #1272D1",
"~@	c #0F70D0",
"{@	c #0B6ED0",
"]@	c #0762BB",
"^@	c #024DAA",
"/@	c #2E5298",
"(@	c #838383",
"_@	c #799BC1",
":@	c #025CC3",
"<@	c #539BE5",
"[@	c #7EBAF5",
"}@	c #75B5F2",
"|@	c #71B1F1",
"1@	c #6EAFF0",
"2@	c #6AADEF",
"3@	c #67AAED",
"4@	c #60A6EB",
"5@	c #5CA4EA",
"6@	c #59A1E9",
"7@	c #559FE8",
"8@	c #529DE6",
"9@	c #4594E2",
"0@	c #4191E1",
"a@	c #3E8FE0",
"b@	c #378ADD",
"c@	c #3388DC",
"d@	c #3086DB",
"e@	c #2C84DA",
"f@	c #2981D9",
"g@	c #267FD8",
"h@	c #227DD7",
"i@	c #1F7AD5",
"j@	c #1B78D4",
"k@	c #1876D3",
"l@	c #1473D2",
"m@	c #1171D1",
"n@	c #0D70D1",
"o@	c #0965BF",
"p@	c #034EAB",
"q@	c #2D5298",
"r@	c #799CC1",
"s@	c #025EC5",
"t@	c #559EE7",
"u@	c #84BEF7",
"v@	c #7AB7F4",
"w@	c #77B5F3",
"x@	c #73B3F2",
"y@	c #70B0F0",
"z@	c #69ACEE",
"A@	c #62A7EC",
"B@	c #5EA5EB",
"C@	c #5BA3E9",
"D@	c #58A0E8",
"E@	c #4795E3",
"F@	c #4393E1",
"G@	c #4090E0",
"H@	c #398CDE",
"I@	c #3287DC",
"J@	c #2E85DB",
"K@	c #2B83D9",
"L@	c #217CD6",
"M@	c #1A77D4",
"N@	c #1675D3",
"O@	c #1372D2",
"P@	c #0F70D1",
"Q@	c #0B68C4",
"R@	c #044EAB",
"S@	c #799CC2",
"T@	c #0260C7",
"U@	c #5FA4EA",
"V@	c #87C0F9",
"W@	c #8EC3F7",
"X@	c #84BCF5",
"Y@	c #75B4F2",
"Z@	c #72B2F1",
"`@	c #6FAFF0",
" #	c #6BADEF",
".#	c #64A9EC",
"+#	c #61A6EB",
"@#	c #4997E3",
"##	c #4292E1",
"$#	c #3E90E0",
"%#	c #3B8DDF",
"&#	c #378BDE",
"*#	c #3186DB",
"=#	c #2D84DA",
"-#	c #2982D9",
";#	c #237DD7",
">#	c #1F7BD6",
",#	c #1C78D4",
"'#	c #1574D2",
")#	c #1171D2",
"!#	c #0D6DCA",
"~#	c #054FAA",
"{#	c #2D5499",
"]#	c #7FA6CE",
"^#	c #0262C9",
"/#	c #63A7EC",
"(#	c #8DC4FB",
"_#	c #92C5F8",
":#	c #B1D5FA",
"<#	c #7FBAF5",
"[#	c #7BB8F4",
"}#	c #74B3F2",
"|#	c #6DAFEF",
"1#	c #4796E3",
"2#	c #4493E2",
"3#	c #4091E1",
"4#	c #3D8FDF",
"5#	c #368ADD",
"6#	c #2F85DB",
"7#	c #2C83DA",
"8#	c #2881D9",
"9#	c #257ED7",
"0#	c #1E7AD5",
"a#	c #1775D3",
"b#	c #1374D3",
"c#	c #1170CE",
"d#	c #0650AB",
"e#	c #2D5399",
"f#	c #818181",
"g#	c #DFDFDF",
"h#	c #93BCE8",
"i#	c #0266CB",
"j#	c #6BAEEF",
"k#	c #94C9FD",
"l#	c #97C9FA",
"m#	c #B3D7FA",
"n#	c #ADD4F9",
"o#	c #7DBAF6",
"p#	c #7DB9F5",
"q#	c #79B7F4",
"r#	c #76B4F2",
"s#	c #5EA4EA",
"t#	c #4C99E5",
"u#	c #3B8EDF",
"v#	c #3187DB",
"w#	c #2E84DA",
"x#	c #1C79D5",
"y#	c #1976D3",
"z#	c #1373D2",
"A#	c #0852AD",
"B#	c #28519B",
"C#	c #ABCDEF",
"D#	c #0769CC",
"E#	c #5BA2EA",
"F#	c #97CBFE",
"G#	c #AED5FC",
"H#	c #B6D8FB",
"I#	c #97C7F8",
"J#	c #7DB9F6",
"K#	c #78B6F3",
"L#	c #529CE6",
"M#	c #4494E2",
"N#	c #3D8FE0",
"O#	c #3A8DDE",
"P#	c #257FD8",
"Q#	c #227CD6",
"R#	c #1575D4",
"S#	c #0955B1",
"T#	c #264F99",
"U#	c #DEDEDE",
"V#	c #ADCFF4",
"W#	c #0764CA",
"X#	c #96CAFE",
"Y#	c #B5D8FC",
"Z#	c #B3D7FB",
"`#	c #95C7F7",
" $	c #7BB8F5",
".$	c #76B5F3",
"+$	c #73B2F1",
"@$	c #5BA2E9",
"#$	c #2B82D9",
"$$	c #0B58B6",
"%$	c #264F9C",
"&$	c #AED1F4",
"*$	c #0763C9",
"=$	c #93C9FC",
"-$	c #ACD4FC",
";$	c #B4D7FC",
">$	c #B2D7FB",
",$	c #94C6F7",
"'$	c #7AB8F5",
")$	c #67ABEE",
"!$	c #64A8EC",
"~$	c #4F9AE5",
"{$	c #4C98E4",
"]$	c #4192E1",
"^$	c #378BDD",
"/$	c #3488DC",
"($	c #1978D5",
"_$	c #0C5BBA",
":$	c #264E9B",
"<$	c #AECFF4",
"[$	c #0764C9",
"}$	c #4E99E5",
"|$	c #92C8FD",
"1$	c #ABD3FA",
"2$	c #B4D7FA",
"3$	c #B1D6F9",
"4$	c #93C5F6",
"5$	c #79B6F4",
"6$	c #70B1F1",
"7$	c #6DAEEF",
"8$	c #4A98E4",
"9$	c #4393E2",
"0$	c #2B83DA",
"a$	c #2880D8",
"b$	c #1B78D5",
"c$	c #0E60C0",
"d$	c #0864C9",
"e$	c #4D98E4",
"f$	c #90C7FC",
"g$	c #ACD3FB",
"h$	c #B3D6FB",
"i$	c #92C4F6",
"j$	c #77B6F4",
"k$	c #529CE7",
"l$	c #4897E3",
"m$	c #3D90E0",
"n$	c #3A8CDF",
"o$	c #378ADE",
"p$	c #3389DC",
"q$	c #3085DB",
"r$	c #1D79D7",
"s$	c #0F61C1",
"t$	c #26519C",
"u$	c #B1D1F3",
"v$	c #0964C8",
"w$	c #4C97E4",
"x$	c #8FC6FC",
"y$	c #AAD3FB",
"z$	c #B2D6FB",
"A$	c #B0D5FA",
"B$	c #93C4F6",
"C$	c #78B3EC",
"D$	c #73B0EB",
"E$	c #6FADEA",
"F$	c #6CABE9",
"G$	c #69A9E8",
"H$	c #65A7E7",
"I$	c #62A4E6",
"J$	c #5EA2E5",
"K$	c #5AA0E4",
"L$	c #569DE3",
"M$	c #539BE2",
"N$	c #4F98E1",
"O$	c #4B96E0",
"P$	c #4793DE",
"Q$	c #4592DE",
"R$	c #1F7CD6",
"S$	c #1062C2",
"T$	c #26509C",
"U$	c #B7D4F4",
"V$	c #0963C7",
"W$	c #4B96E3",
"X$	c #8EC5FC",
"Y$	c #A9D2F9",
"Z$	c #B1D5F9",
"`$	c #AFD4F8",
" %	c #74B4F3",
".%	c #60A7EB",
"+%	c #78B3EE",
"@%	c #A8CEF3",
"#%	c #A2CBF3",
"$%	c #9EC8F2",
"%%	c #9AC6F1",
"&%	c #97C4F0",
"*%	c #93C1EE",
"=%	c #90BFED",
"-%	c #8CBDEC",
";%	c #88BAEB",
">%	c #84B8EA",
",%	c #7FB5E9",
"'%	c #7BB2E8",
")%	c #77B0E8",
"!%	c #73ADE5",
"~%	c #70ACE6",
"{%	c #62A2E3",
"]%	c #207CD7",
"^%	c #1363C2",
"/%	c #0963C6",
"(%	c #4A95E2",
"_%	c #8CC4FB",
":%	c #A9D1FA",
"<%	c #AED4F9",
"[%	c #91C3F5",
"}%	c #94C3F2",
"|%	c #A4CBF3",
"1%	c #9FC8F3",
"2%	c #9BC6F2",
"3%	c #98C4EF",
"4%	c #94C3F0",
"5%	c #90BFEF",
"6%	c #8DBDEE",
"7%	c #89BCED",
"8%	c #85B8EC",
"9%	c #81B7EB",
"0%	c #7DB3EA",
"a%	c #79B2E9",
"b%	c #75AEE8",
"c%	c #71ABE7",
"d%	c #6CAAE5",
"e%	c #6BA7E5",
"f%	c #5EA0E2",
"g%	c #2680D8",
"h%	c #1262C0",
"i%	c #2D569B",
"j%	c #B6D3F3",
"k%	c #0962C5",
"l%	c #4994E2",
"m%	c #8BC2FB",
"n%	c #A7D1FA",
"o%	c #B0D4FA",
"p%	c #AED3F9",
"q%	c #8FC2F5",
"r%	c #71B2F2",
"s%	c #62A7ED",
"t%	c #5EA5EC",
"u%	c #529EE7",
"v%	c #4F9CE6",
"w%	c #4B99E5",
"x%	c #4897E4",
"y%	c #4193E1",
"z%	c #3E91E0",
"A%	c #3A8EDF",
"B%	c #378CDE",
"C%	c #3489DD",
"D%	c #3087DD",
"E%	c #2D85DC",
"F%	c #2983DA",
"G%	c #2780D9",
"H%	c #2581DA",
"I%	c #1462C2",
"J%	c #2E569D",
"K%	c #8B8B8B",
"L%	c #B7D4F3",
"M%	c #0961C5",
"N%	c #4792E0",
"O%	c #89C2FA",
"P%	c #A6D0F9",
"Q%	c #ADD3F7",
"R%	c #8EC2F4",
"S%	c #74B3F1",
"T%	c #7FB8F1",
"U%	c #67ABED",
"V%	c #448FDC",
"W%	c #458DDC",
"X%	c #418BDB",
"Y%	c #408ADA",
"Z%	c #3C88DA",
"`%	c #3A86D7",
" &	c #3884D6",
".&	c #3582D5",
"+&	c #3380D4",
"@&	c #317ED3",
"#&	c #2E7CD3",
"$&	c #2978CF",
"%&	c #2876CE",
"&&	c #2473CD",
"*&	c #2271CC",
"=&	c #206FCA",
"-&	c #1E6DC9",
";&	c #1B6BC8",
">&	c #1A6CC8",
",&	c #0C56B8",
"'&	c #325CA3",
")&	c #ACACAC",
"!&	c #B8D4F3",
"~&	c #0960C4",
"{&	c #418DDD",
"]&	c #87C1F9",
"^&	c #A5CFF9",
"/&	c #ABD1F7",
"(&	c #A9D0F6",
"_&	c #A8CFF6",
":&	c #6BAFEF",
"<&	c #67AAEE",
"[&	c #004DB6",
"}&	c #195CB2",
"|&	c #2064BF",
"1&	c #2064C4",
"2&	c #2064C3",
"3&	c #2063C3",
"4&	c #2064C1",
"5&	c #2063C0",
"6&	c #2062BF",
"7&	c #205FBD",
"8&	c #2161BE",
"9&	c #2963BD",
"0&	c #2964BD",
"a&	c #2962BB",
"b&	c #2961BA",
"c&	c #2961B9",
"d&	c #295EB8",
"e&	c #295EB7",
"f&	c #5981C2",
"g&	c #0B61C4",
"h&	c #408CDC",
"i&	c #86C0F9",
"j&	c #ADD3F9",
"k&	c #A8D0F7",
"l&	c #A7CFF7",
"m&	c #0050B8",
"n&	c #6B727B",
"o&	c #0B60C4",
"p&	c #85C0F9",
"q&	c #A5CFF8",
"r&	c #ADD2F7",
"s&	c #A9D1F6",
"t&	c #6FB0F1",
"u&	c #6CAFEF",
"v&	c #0050B9",
"w&	c #B8D3F2",
"x&	c #095EC2",
"y&	c #3F8BDB",
"z&	c #84BFF8",
"A&	c #A5CEF8",
"B&	c #ADD3F8",
"C&	c #0052B9",
"D&	c #BAD5F3",
"E&	c #0B5EC3",
"F&	c #3E89DA",
"G&	c #82BDF7",
"H&	c #A5CEF7",
"I&	c #74B4F2",
"J&	c #71B0F0",
"K&	c #0051BA",
"L&	c #B9D2F2",
"M&	c #0E60C2",
"N&	c #3D88DA",
"O&	c #83BEF7",
"P&	c #78B6F4",
"Q&	c #72B1F1",
"R&	c #BFD7F3",
"S&	c #0E5EC1",
"T&	c #3A86D8",
"U&	c #80BDF7",
"V&	c #0053BA",
"W&	c #0E5FC0",
"X&	c #3783D7",
"Y&	c #7EBAF6",
"Z&	c #0053BB",
"`&	c #C1D8F3",
" *	c #0E5EC0",
".*	c #0055BC",
"+*	c #717A83",
"@*	c #C7C7C7",
"#*	c #C0D6F3",
"$*	c #0057BD",
"%*	c #8C95A2",
"&*	c #D0D0D0",
"**	c #C0D6F1",
"=*	c #B7C3D4",
"-*	c #C1D6F0",
";*	c #DAE5F2",
"                                                                                                ",
"                                                                                                ",
"                                              . + @                                             ",
"                                            . # $ %                                             ",
"                                          . & * = -                                             ",
"                                        . ; > , ' -                                             ",
"                                      ) ; ! ~ { ' ]                                             ",
"                                    ^ / ( _ : < ' ]                                             ",
"                                  ^ [ } | 1 2 , ' ]                                             ",
"                                3 4 5 6 7 8 9 0 ' ]                                             ",
"                              3 4 a b c d e f 0 ' ]                                             ",
"                            3 g h i j k l m n o ' ]                                             ",
"                          3 p q r s t u v w x y z A B C C C C D E E E E E E E E E E D E )       ",
"                        3 p F G H I J K c L M y N O P Q R R R R S T T T U V W T T T S X Y Z     ",
"                      3 `  ...+.@.#.$.%.&.*.=.-.;.>.,.'.).!.~.{.].^./.(._.:.<.[.}.|.1.2.3.4.    ",
"                    3 5.6.7.8.9.0.a.b.c.d.e.f.g.h.i.j.k.l.m.n.o.p.q.r.s.t.u.v.w.x.y.z.A.B.4.    ",
"                  3 C.D.E.F.G.H.I.@.J.K.L.M.N.O.P.Q.R.S.T.U.V.W.X.Y.Z.`. +.+++@+#+$+%+&+*+=+    ",
"                3 -+;+>+,+'+)+!+~+{+]+^+/+(+_+:+<+[+}+|+1+2+3+4+5+6+7+8+9+0+a+b+c+d+e+f+*+=+    ",
"              @ C.g+h+i+j+k+l+m+n+o+p+J.q+r+s+t+u+v+w+x+y+z+A+B+C+D+E+F+G+H+I+J+K+L+M+f+N+O+    ",
"            P+Q+R+S+T+U+V+W+X+Y+Z+~+`+ @.@$.%.u +@@@#@$@%@&@*@=@-@;@>@,@'@)@!@~@{@]@^@/@(@O+    ",
"          P+_@:@<@[@}@|@1@2@3@l+4@5@6@7@8@I J K 9@0@a@8 b@c@d@e@f@g@h@i@j@k@l@m@n@o@p@q@(@O+    ",
"        P+r@s@t@u@v@w@x@y@V+z@k+A@B@C@D@@.#.$.%.E@F@G@#@H@%@I@J@K@-@;@L@,@M@N@O@P@Q@R@q@(@O+    ",
"      @ S@T@U@V@W@X@T+Y@Z@`@ #W+.#+#!+~+0.a.b.c.@#9@##$#%#&#: *#=#-#g@;#>#,#k@'#)#!#~#{#(@O+    ",
"      ]#^#/#(#_#:#<#[#w@}#|@|#j+k+l+m+n+I.t@J.I J 1#2#3#4#H@5#c@6#7#8#9#L@0#M@a#b#c#d#e#f#g#    ",
"    h#i#j#k#l#m#n#o#p#q#r#Z@U+V+W+X+)+s#~+`+]+.@t#@#u ##@@u#$@%@v#w#=@-@;#>@x#y#'#z#A#B#X g#    ",
"    C#D#E#F#G#H#m#I#J#[#K#}#|@1@2@3@l+4@n+6@p+L#I J K M#0@N#O#b@c@d@7#f@P#Q#0#j@a#R#S#T#X U#    ",
"      V#W#`+X#G#Y#Z#`# $v@.$+$y@V+z@X+A@Z+@$`+@..@$.%.u F@@@#@H@%@I@J@#$-@;@>@,@'@G+$$%$V U#    ",
"        &$*$t@=$-$;$>$,$'$K#Y@Z@1@ #)$!$4@!+6@0.8@~${$K 9@]$a@8 ^$/$d@=#f@g@h@i@j@($_$:$V U#    ",
"          <$[$}$|$1$2$3$4$5$w@x@6$7$z@k+A@m+C@D@@.J.K.8$E@9$d #@H@5#I@6#0$a$;@L@,@b$c$:$V U#    ",
"            <$d$e$f$g$h$:#i$j$r#Z@U+ #W+.#+#!+~+7@k$I J l$2#0@m$n$o$p$q$e@-#P#;#>#r$s$t$X g#    ",
"              u$v$w$x$y$z$A$B$.$}#|@,+j+k+l+m+!+C$D$E$F$G$H$I$J$K$L$M$N$O$P$Q$-@L@R$S$T$f#g#    ",
"                U$V$W$X$Y$Z$`$i$ %+$U+V+W+X+.%+%@%#%$%%%&%*%=%-%;%>%,%'%)%!%~%{%g@]%^%T$(@O+    ",
"                  U$/%(%_%:%A$<%[%x@|@1@2@3@Y+}%|%1%2%3%4%5%6%7%8%9%0%a%b%c%d%e%f%g%h%i%(@O+    ",
"                    j%k%l%m%n%o%p%q%r%y@V+z@X+s%t%9.`+u%v%w%x%t+y%z%A%B%C%D%E%F%G%H%I%J%K%4.    ",
"                      L%M%N%O%P%`$Q%R%S%T% #U%V%W%X%Y%Z%`% &.&+&@&#&$&%&&&*&=&-&;&>&,&'&)&      ",
"                        !&~&{&]&^&p%/&(&_&:&<&[&}&|&1&2&3&4&5&6&7&8&9&0&9&a&b&c&d&e&e&f&        ",
"                          !&g&h&i&^&j&k&l&,+j+m&n&]                                             ",
"                            !&o&7.p&q&r&s&t&u&v&n&]                                             ",
"                              w&x&y&z&A&B&|@1@C&n&]                                             ",
"                                D&E&F&G&H&I&J&K&n&]                                             ",
"                                  L&M&N&O&P&Q&K&n&]                                             ",
"                                    R&S&T&U& %V&n&]                                             ",
"                                      R&W&X&Y&Z&n&-                                             ",
"                                        `& *+&.*+*@*                                            ",
"                                          #*s$$*%*&*                                            ",
"                                            **s$=*)                                             ",
"                                              -*;*                                              ",
"                                                                                                "};
