/* XPM */
static char * unmount_disabled_xpm[] = {
"48 48 14 1",
" 	g None",
".	g #BBBBBB",
"+	g #B6B6B6",
"@	g #B3B3B3",
"#	g #B5B5B5",
"$	g #B8B8B8",
"%	g #B4B4B4",
"&	g #B9B9B9",
"*	g #BDBDBD",
"=	g #BCBCBC",
"-	g #BEBEBE",
";	g #B7B7B7",
">	g #BABABA",
",	g #B2B2B2",
"                                                ",
"              .+@#$.                            ",
"             $###%@%+&*                         ",
"           $###@@%#%@%#+=-                      ",
"         .+%%#%#####%%###&-                     ",
"         &%@##%#%%%##+##%+&-                    ",
"         $###%###+;$$;;;$++&*-                  ",
"         $%####+;;$$$$$$$$;+&=                  ",
"         &###+;;$$$$$$$$$$;;$;>                 ",
"         $###+$;;$$$$$$$$$$$$;$.                ",
"         $##+;$$$$$$$$$$$$$$$;;$*               ",
"         $#+$$$$$$$$$$$$$$$$$$$$$-              ",
"         $#;$$$$$$$$$$$$$$$$$$$$+&-             ",
"         &+$$$$$$$$$$$;++++++;$$$+$-            ",
"         &+$$$&&$$$$;+###%####++$+#$-           ",
"         &;$$$&&$$$;+###########+;#%$*          ",
"         >$$&$&&$&$+###########+#+#%#+          ",
"         >$$&$$$$&;+##############%##%&         ",
"         >$$&$$$$$+############%#%%#%%+         ",
"         >$$&$$$&$+#############%##@@##         ",
"         .$&&$&$&$+#%########%%%#%@#+;#         ",
"         .$&&&&&&&;#%#####%##%%%%%#&==$*        ",
"         .&&&&&&&&;#%#####%##%%#%$.***.-        ",
"         .&&&&&&&&;######%###@#+.*=*=**=*       ",
"         .&&&&>&&&$+#%%#%##@##&**=*-==-*=-      ",
"         .&&&&&&&&$+#%%%#@%%$=-*=*===*=.$.=     ",
"         .&&&&&&&&$+####%@$.=====*==-=;@,;==    ",
"         .&&&&&&&&$++####$==========*.+,#>=*=   ",
"         =&&&&&&&&$++###@$-=**==*=*-===&==-=-=- ",
".>>.....=>&>>&&&>>$$$;;;;$&>====&+&*==-**-=*=*= ",
"=&&&&&&&&&&>>>>>>>&&&&&&&&&>=-*+@,#=*=====*=-*==",
"-.&>>>>&>>..>>>>>.>&>>>>.&>-*.*$@#&===*=*==--.&&",
" -.&>>&.>>>>>>>>>>>.>>.>&.=*===*.=*=======*=.#@&",
"  ->>>>>>>>>>>>>>>....>&&* *.=*=*=======**.+%@#>",
"   *&.&>>.>>>>>>>.....&&=-  =========*=*.$%@#;&.",
"   -=&.>.....>>>>....>>.--   *======*-.&#@@+&.= ",
"     ..>.............&.-      -==*=-=>+@@#$.=*  ",
"     ->>............>.*        *====;%@#$>=*    ",
"      *............>.=-         *==.#%+..*      ",
"       .>..........>.-           -==;&.=        ",
"        .>........>.-             *..=          ",
"        -.>......>.*               **-          ",
"         -.>.....>=-                            ",
"          =&....>=-                             ",
"          -=&.=&.-                              ",
"           -.&>.-                               ",
"            ->&*                                ",
"             ==-                                "};
